# xmcd
#
# Track frame offsets: 
#        150
#        12358
#        25814
#        36033
#        49337
#        61653
#        74097
#        82161
#        94394
#        103837
#        116421
#        125046
#        135063
#        147944
#        161669
#
# Disc length: 2316 seconds
#
# Revision: 2
# Processed by: cddbd v1.5.2PL0 Copyright (c) Steve Scherf et al.
# Submitted via: ExactAudioCopy v0.99pb5
#
DISCID=d3090a0f
DTITLE=Various Artist - Simply Country - Disc 4
DYEAR=2004
DGENRE=Country
TTITLE0=Lester Flatt And Earl Scruggs - Foggy Mountain Breakdown
TTITLE1=Bill Monroe - Bluegrass Stomp
TTITLE2=Red Foley - Square Dance Tennessee
TTITLE3=Jimmy Wakeley - Moon Over Montana
TTITLE4=The Stanley Brothers - Hey! Hey! Hey!
TTITLE5=Hank Williams - Move It On Over
TTITLE6=Bob Wills - Cotton Eyed Joe
TTITLE7=Johnny Bond - Divorce Me C.O.D.
TTITLE8=Tex Williams - Pale Moon
TTITLE9=Roy Acuff - Wreck On The Highway
TTITLE10=Ferlin Husky - I Wouldn't Treat A Dog Like You're Treating Me
TTITLE11=Jean Shepard - I Didn't Know The Gun Was Loaded
TTITLE12=Spade Cooley - You'll Rue The Day
TTITLE13=Kitty Wells - Death At The Bar
TTITLE14=Hank Snow - Blue Eyes Crying In The Rain
EXTD=YEAR: 2004
EXTT0=
EXTT1=
EXTT2=
EXTT3=
EXTT4=
EXTT5=
EXTT6=
EXTT7=
EXTT8=
EXTT9=
EXTT10=
EXTT11=
EXTT12=
EXTT13=
EXTT14=
PLAYORDER=
